<svg width="24" height="24" viewBox="0 0 24 24" fill="none" xmlns="http://www.w3.org/2000/svg">
<path d="M17.6008 10.1633V9.6C17.6008 6.50721 15.0936 4 12.0008 4C8.90804 4 6.40083 6.50721 6.40083 9.6V10.1633C6.40083 10.8393 6.20074 11.5001 5.82577 12.0626L4.90688 13.4409C4.06757 14.6999 4.70832 16.4111 6.16808 16.8092C9.98685 17.8507 14.0148 17.8507 17.8336 16.8092C19.2934 16.4111 19.9341 14.6999 19.0948 13.4409L18.1759 12.0626C17.8009 11.5001 17.6008 10.8393 17.6008 10.1633Z" stroke="black" stroke-width="1.5"/>
<path d="M8.40039 17.6C8.92441 18.9982 10.3384 20 12.0004 20C13.6624 20 15.0764 18.9982 15.6004 17.6" stroke="black" stroke-width="1.5" stroke-linecap="round"/>
</svg>
